<?xml version="1.0" standalone="no"?>
<!DOCTYPE svg PUBLIC "-//W3C//DTD SVG 20010904//EN"
 "http://www.w3.org/TR/2001/REC-SVG-20010904/DTD/svg10.dtd">
<svg version="1.0" xmlns="http://www.w3.org/2000/svg"
 width="1200.000000pt" height="1200.000000pt" viewBox="0 0 1200.000000 1200.000000"
 preserveAspectRatio="xMidYMid meet">

<g transform="translate(0.000000,1200.000000) scale(0.100000,-0.100000)"
fill="#000000" stroke="none">
<path d="M8043 6975 c-73 -20 -126 -49 -167 -91 -60 -62 -71 -96 -70 -211 l2
-102 -55 -7 c-77 -9 -113 -41 -113 -100 0 -35 6 -51 26 -71 25 -24 30 -25 100
-20 71 6 74 6 79 -16 2 -12 23 -152 46 -311 38 -276 55 -346 81 -346 6 0 9 -2
6 -5 -3 -4 -404 -65 -425 -65 -2 0 1 9 7 19 5 11 10 39 10 63 0 70 -101 740
-116 774 -43 92 -194 57 -194 -45 0 -19 -3 -18 -64 10 -294 138 -611 -108
-582 -452 16 -199 107 -348 257 -423 76 -38 78 -36 -48 -52 -29 -4 -53 -8 -53
-9 0 -15 81 -559 84 -562 5 -5 2950 419 2958 426 3 3 -11 127 -33 275 l-39
270 24 20 c47 39 47 56 10 312 -37 254 -38 307 -6 371 39 75 97 104 197 95 73
-5 101 7 120 52 19 44 4 100 -32 123 -36 24 -125 21 -185 -5 -52 -23 -134 -93
-143 -123 -8 -23 -25 -25 -25 -3 0 8 -13 29 -29 45 -23 22 -39 29 -69 29 -48
0 -97 -36 -105 -76 -2 -15 20 -196 49 -403 44 -306 58 -381 74 -403 11 -16 17
-28 13 -28 -4 0 -66 -9 -138 -20 -159 -24 -148 -24 -135 -1 17 32 12 80 -44
466 l-54 369 -31 28 c-63 56 -170 16 -171 -64 l0 -27 -56 26 c-162 74 -341 45
-461 -75 -96 -96 -141 -227 -129 -377 11 -148 55 -251 145 -342 46 -45 142
-103 172 -103 7 0 10 -2 7 -5 -2 -3 -130 -23 -284 -45 -153 -22 -294 -42 -312
-45 l-33 -6 16 31 c15 30 14 48 -30 347 -36 243 -44 318 -34 323 6 5 42 11 78
15 108 11 151 43 151 110 0 30 -43 81 -74 87 -13 3 -62 -1 -108 -7 -45 -7 -85
-11 -87 -9 -2 1 -6 32 -8 68 -5 62 -4 66 25 95 28 29 36 31 101 31 81 0 114
12 130 47 25 56 2 112 -56 134 -34 13 -109 10 -170 -6z m899 -427 c22 -6 58
-28 82 -49 114 -101 134 -303 41 -425 -60 -78 -207 -109 -302 -63 -96 46 -158
170 -150 295 13 185 159 293 329 242z m-1784 -263 c122 -51 199 -228 158 -367
-34 -119 -123 -188 -241 -188 -142 0 -244 105 -261 267 -13 119 45 235 139
279 62 28 148 32 205 9z m2029 -380 l21 -34 -26 -5 c-15 -3 -49 -8 -77 -12
l-50 -6 41 31 c23 17 45 38 48 46 8 23 19 18 43 -20z m458 -77 c2 -7 7 -40 10
-73 3 -33 9 -91 14 -130 9 -79 8 -85 -20 -85 -10 0 -19 3 -20 8 0 4 -2 14 -4
22 -7 31 -45 244 -45 251 0 7 22 15 48 18 7 0 15 -5 17 -11z m-99 -73 c6 -38
19 -124 30 -190 10 -66 17 -122 16 -125 -6 -12 -52 -17 -60 -7 -5 7 -28 60
-52 119 -24 60 -45 106 -47 104 -4 -3 20 -158 32 -214 4 -17 0 -25 -17 -31
-13 -5 -26 -6 -30 -2 -10 9 -72 380 -65 387 3 3 20 7 38 7 31 2 32 0 75 -98
24 -55 43 -95 44 -90 0 6 -7 52 -15 103 -9 51 -13 98 -9 103 3 6 16 9 27 7 19
-3 24 -13 33 -73z m-207 -130 c31 -234 31 -229 -1 -233 -22 -3 -27 2 -32 25
-9 45 -47 336 -47 358 0 12 43 25 52 16 4 -3 16 -78 28 -166z m-111 128 c3
-19 -3 -23 -38 -29 -42 -7 -42 -7 -36 -43 3 -20 6 -44 6 -53 0 -14 8 -18 34
-18 22 0 36 -6 40 -16 8 -22 1 -30 -32 -37 -29 -6 -29 -7 -21 -54 4 -26 8 -54
8 -61 1 -10 13 -13 44 -10 39 3 42 1 45 -23 3 -25 0 -27 -60 -36 -35 -6 -67
-7 -72 -2 -11 10 -69 379 -61 387 7 7 92 20 120 18 13 -1 21 -9 23 -23z m-263
-25 c3 -13 16 -90 28 -172 l22 -149 45 -1 c38 -1 45 -4 48 -23 3 -23 -4 -26
-100 -39 l-46 -6 -8 48 c-3 27 -17 117 -29 199 -16 109 -20 152 -11 157 22 15
46 8 51 -14z m-131 -25 c57 -198 96 -344 96 -357 0 -13 -7 -17 -27 -14 -23 3
-29 10 -40 49 -12 41 -16 46 -38 42 -21 -5 -24 -11 -27 -57 -3 -47 -5 -51 -30
-54 l-28 -3 0 199 c0 109 3 202 7 205 3 4 23 7 44 7 27 0 39 -5 43 -17z m-175
-25 c4 -13 18 -101 31 -196 20 -149 22 -175 9 -183 -33 -21 -44 -5 -58 84 -13
80 -16 88 -35 85 -24 -3 -25 -20 -13 -124 8 -61 7 -62 -18 -66 -32 -7 -41 8
-48 82 -4 30 -13 100 -21 155 -9 55 -16 115 -16 133 0 30 2 33 27 30 24 -3 28
-9 35 -48 17 -107 18 -110 38 -110 28 0 30 10 18 83 -6 36 -8 73 -5 81 9 24
46 20 56 -6z m-1272 -33 l21 -34 -26 -5 c-15 -3 -49 -8 -77 -12 l-50 -6 41 31
c23 17 45 38 48 46 8 23 19 18 43 -20z m1048 0 c16 -15 25 -36 25 -55 0 -25
-4 -30 -25 -30 -18 0 -26 7 -31 25 -6 25 -37 35 -49 16 -8 -14 26 -259 39
-277 18 -24 46 -7 46 28 0 26 3 29 28 26 25 -3 27 -6 25 -43 -1 -49 -30 -75
-82 -75 -33 0 -81 28 -81 46 0 3 -9 64 -20 137 -12 72 -18 143 -15 159 14 63
95 89 140 43z m-265 -213 c30 -226 30 -207 -4 -207 -30 0 -30 0 -42 83 -6 46
-14 85 -16 87 -2 2 -14 1 -27 -2 -20 -5 -22 -10 -17 -37 4 -17 9 -56 13 -87 5
-53 4 -57 -17 -64 -12 -4 -26 -3 -30 2 -9 9 -48 268 -52 348 -3 47 -2 50 23
53 25 3 27 0 33 -45 16 -111 17 -113 43 -113 25 0 25 1 19 53 -4 28 -9 66 -12
84 -5 27 -3 32 18 35 12 2 28 -2 34 -9 6 -7 21 -88 34 -181z m-225 133 c0 -12
-9 -21 -25 -25 -14 -4 -24 -13 -23 -21 1 -8 11 -83 23 -168 19 -128 20 -155 9
-162 -25 -16 -43 -5 -50 31 -4 19 -15 85 -24 145 -24 159 -23 155 -56 155 -24
0 -29 4 -29 24 0 22 6 26 53 34 80 15 122 11 122 -13z m-159 -195 c29 -101 50
-188 48 -192 -3 -4 -16 -8 -30 -8 -20 0 -26 7 -36 45 -11 40 -15 45 -40 45
-27 0 -28 -1 -28 -56 0 -54 0 -55 -27 -52 l-28 3 -2 194 c-3 214 -3 213 56
209 l34 -3 53 -185z m-235 141 c32 -32 38 -65 13 -75 -29 -11 -43 -6 -46 17
-2 14 -11 23 -25 25 -19 3 -23 -1 -23 -26 0 -22 15 -46 55 -91 83 -93 101
-141 74 -194 -16 -30 -28 -37 -67 -37 -45 0 -67 13 -82 49 -16 39 -7 61 22 61
17 0 27 -9 35 -30 12 -32 37 -40 47 -14 8 21 -14 61 -67 120 -93 103 -103 183
-26 213 40 16 59 12 90 -18z m2143 -27 c11 -28 6 -42 -16 -48 -15 -4 -27 0
-35 11 -24 31 -14 47 33 52 7 0 15 -6 18 -15z m-2453 -7 c22 -17 28 -38 50
-162 29 -168 26 -196 -22 -220 -40 -21 -74 -19 -104 8 -23 19 -28 38 -45 151
-27 172 -26 190 6 215 30 23 90 28 115 8z m-222 -49 c54 -173 101 -332 101
-343 0 -15 -34 -30 -49 -21 -5 3 -14 26 -20 51 -10 39 -15 46 -34 43 -19 -3
-22 -10 -25 -51 -3 -40 -7 -50 -28 -59 -20 -10 -27 -9 -34 2 -5 8 -9 99 -9
202 -1 186 -1 189 22 198 45 18 65 12 76 -22z"/>
<path d="M8799 5589 c-2 -8 -2 -37 1 -65 4 -41 8 -50 20 -45 14 5 14 12 0 65
-9 33 -18 53 -21 45z"/>
<path d="M7701 5383 c-1 -66 0 -71 19 -66 11 3 20 6 20 7 -1 0 -9 30 -20 66
l-19 65 0 -72z"/>
<path d="M7163 5424 c-5 -14 0 -56 28 -221 10 -57 13 -63 35 -63 15 0 24 6 24
15 0 25 -40 267 -46 276 -9 15 -34 10 -41 -7z"/>
<path d="M6981 5283 c-1 -67 1 -73 19 -73 25 0 25 9 1 85 l-19 60 -1 -72z"/>
<path d="M6013 6355 c-159 -43 -253 -145 -253 -272 0 -91 16 -132 71 -185 54
-53 125 -80 259 -97 173 -23 223 -44 235 -101 16 -75 -51 -122 -175 -122 -79
0 -136 20 -212 73 -89 63 -194 -55 -124 -139 54 -63 186 -112 305 -112 132 0
224 34 308 113 68 64 87 114 81 206 -6 83 -38 144 -95 184 -55 38 -82 46 -240
72 -165 28 -197 41 -213 90 -25 76 37 129 154 128 73 -1 109 -13 168 -56 58
-43 146 11 134 82 -17 109 -233 181 -403 136z"/>
<path d="M5204 6231 c-89 -22 -192 -104 -231 -185 -16 -34 -33 -47 -33 -26 0
21 -72 89 -116 110 -52 24 -153 29 -219 11 -60 -16 -128 -63 -173 -120 -39
-49 -52 -54 -52 -21 0 9 -13 29 -29 44 -66 63 -171 18 -171 -72 0 -20 23 -197
50 -392 54 -376 58 -391 114 -418 40 -20 104 3 129 46 19 33 19 33 -19 296
-43 301 -42 321 25 387 58 59 174 78 237 40 53 -32 69 -86 109 -357 20 -137
41 -261 46 -276 31 -77 157 -76 189 2 11 26 7 67 -25 294 -38 260 -38 265 -21
310 36 94 148 152 243 127 88 -24 105 -68 153 -394 35 -242 40 -261 64 -286
55 -55 157 -23 171 53 6 32 -55 484 -77 566 -17 68 -54 147 -88 190 -52 65
-171 96 -276 71z"/>
<path d="M2701 6124 c-17 -14 -33 -39 -36 -57 -3 -18 7 -122 24 -232 16 -110
29 -200 28 -202 -8 -7 -537 -76 -543 -70 -4 4 -20 95 -36 203 -29 203 -42 244
-85 263 -56 26 -126 0 -148 -53 -13 -29 -7 -83 61 -552 40 -285 79 -529 85
-541 17 -31 74 -56 112 -49 17 4 44 18 59 33 36 34 36 65 2 298 -14 97 -23
179 -21 182 5 5 540 83 543 80 1 -1 16 -95 32 -208 16 -113 35 -215 41 -226
12 -23 68 -53 99 -53 29 0 86 42 96 73 7 20 -8 154 -63 534 -40 280 -77 523
-83 541 -19 63 -112 83 -167 36z"/>
<path d="M3787 6009 c-11 -6 -26 -27 -34 -46 -13 -33 -12 -56 23 -302 42 -299
41 -323 -11 -376 -42 -41 -99 -59 -175 -53 -122 9 -140 46 -190 390 -38 261
-38 262 -69 290 -36 33 -79 36 -122 11 -54 -32 -56 -55 -25 -273 55 -389 69
-436 158 -522 67 -65 138 -91 253 -91 154 -1 282 53 355 149 37 48 70 150 70
214 0 45 -62 501 -76 555 -14 54 -104 85 -157 54z"/>
</g>
</svg>
